<?xml version="1.0" standalone="no"?>
<!DOCTYPE svg PUBLIC "-//W3C//DTD SVG 20010904//EN"
 "http://www.w3.org/TR/2001/REC-SVG-20010904/DTD/svg10.dtd">
<svg version="1.0" xmlns="http://www.w3.org/2000/svg"
 width="500.000000pt" height="500.000000pt" viewBox="0 0 500.000000 500.000000"
 preserveAspectRatio="xMidYMid meet">

<g transform="translate(0.000000,500.000000) scale(0.100000,-0.100000)"
fill="#000000" stroke="none">
<path d="M1958 3572 c-280 -80 -505 -149 -500 -153 4 -3 240 -72 525 -153
l518 -146 442 125 c243 70 444 130 445 136 2 5 8 7 13 4 9 -6 128 23 141 34
10 9 -1019 302 -1052 300 -14 0 -253 -67 -532 -147z m622 -117 l34 -25 355 -2
c402 -2 399 -3 -35 -22 -310 -13 -310 -13 -349 -39 -71 -49 -165 -24 -165 43
0 65 96 92 160 45z"/>
<path d="M2465 3434 c-20 -21 -15 -35 18 -54 23 -13 30 -13 61 3 44 20 45 32
6 52 -37 19 -64 19 -85 -1z"/>
<path d="M1345 3529 c-60 -56 -99 -114 -110 -168 l-7 -34 47 34 c66 48 109
110 139 202 9 29 -10 19 -69 -34z"/>
<path d="M3590 3553 c15 -52 23 -68 56 -113 18 -25 53 -61 79 -79 l47 -34 -7
34 c-11 54 -50 112 -110 168 -31 28 -60 51 -65 51 -5 0 -5 -12 0 -27z"/>
<path d="M1165 3494 c-23 -55 -29 -85 -29 -146 -1 -114 18 -118 55 -12 22 62
28 161 12 203 -9 22 -12 18 -38 -45z"/>
<path d="M3795 3530 c-14 -57 -8 -132 14 -195 34 -97 51 -100 59 -11 4 55 -12
126 -46 201 l-19 40 -8 -35z"/>
<path d="M1049 3338 c-19 -77 -17 -176 6 -218 l19 -35 14 45 c26 83 14 260
-18 260 -4 0 -14 -24 -21 -52z"/>
<path d="M3908 3353 c-17 -49 -14 -177 5 -228 l15 -40 18 40 c11 24 18 64 18
100 0 64 -21 165 -34 165 -5 0 -14 -17 -22 -37z"/>
<path d="M1270 3318 c-75 -50 -147 -144 -127 -164 10 -10 83 35 124 75 35 34
83 106 83 126 0 12 -21 3 -80 -37z"/>
<path d="M3650 3355 c0 -20 48 -92 83 -126 41 -40 114 -85 124 -75 8 8 -6 42
-36 83 -37 51 -171 143 -171 118z"/>
<path d="M3392 3299 c-1 -40 -6 -59 -17 -63 -20 -7 -19 -45 0 -53 14 -5 14 -7
1 -22 -9 -10 -26 -80 -41 -165 -30 -169 -29 -173 43 -183 49 -7 102 12 102 36
0 9 -11 81 -25 160 -18 99 -31 148 -42 156 -15 11 -14 12 1 18 20 8 21 40 1
57 -8 6 -16 34 -18 63 l-3 52 -2 -56z"/>
<path d="M924 3194 c10 -80 33 -147 66 -192 42 -59 54 -55 47 15 -7 65 -53
167 -93 203 l-27 25 7 -51z"/>
<path d="M4044 3208 c-15 -18 -38 -57 -51 -85 -27 -59 -43 -163 -25 -163 18 0
62 65 82 122 19 55 37 158 27 158 -3 0 -18 -15 -33 -32z"/>
<path d="M2030 2941 l0 -258 45 -42 c91 -84 208 -115 430 -114 223 1 348 35
438 121 l37 36 0 258 c0 142 -2 258 -4 258 -2 0 -107 -31 -233 -70 -125 -38
-235 -70 -243 -70 -8 0 -114 32 -236 70 -122 39 -225 70 -228 70 -3 0 -6 -116
-6 -259z"/>
<path d="M1142 3071 c-57 -87 -91 -208 -63 -225 13 -8 76 91 96 150 9 28 15
71 13 95 l-3 44 -43 -64z"/>
<path d="M3810 3088 c0 -26 7 -69 16 -95 21 -60 83 -155 96 -147 30 19 -26
186 -86 259 l-25 30 -1 -47z"/>
<path d="M916 2993 c18 -83 51 -150 98 -198 58 -59 67 -49 36 40 -25 72 -60
125 -107 160 l-34 27 7 -29z"/>
<path d="M4032 2971 c-48 -48 -84 -118 -99 -194 -6 -27 -4 -28 15 -18 43 23
90 92 116 173 15 44 25 82 23 85 -3 2 -27 -18 -55 -46z"/>
<path d="M1136 2858 c-3 -13 -6 -62 -6 -109 0 -88 19 -167 46 -190 21 -17 29
12 29 116 0 77 -4 99 -27 148 -15 31 -29 57 -31 57 -3 0 -7 -10 -11 -22z"/>
<path d="M3824 2825 c-25 -52 -29 -72 -29 -150 0 -104 8 -133 29 -116 28 23
46 102 45 195 0 50 -4 100 -9 111 -7 17 -12 11 -36 -40z"/>
<path d="M899 2757 c54 -79 145 -147 196 -147 13 0 14 4 4 22 -24 45 -106 122
-154 144 -72 34 -81 31 -46 -19z"/>
<path d="M4055 2776 c-70 -33 -192 -166 -152 -166 52 0 145 69 198 147 35 50
26 53 -46 19z"/>
<path d="M1245 2574 c13 -72 69 -177 118 -221 39 -36 67 -53 67 -40 0 15 -36
120 -52 150 -22 43 -91 123 -121 139 -18 9 -19 8 -12 -28z"/>
<path d="M3704 2568 c-63 -58 -103 -131 -128 -230 -9 -39 6 -35 61 15 30 27
58 66 79 112 31 68 53 145 40 145 -4 0 -27 -19 -52 -42z"/>
<path d="M990 2571 c16 -31 121 -120 167 -142 24 -12 62 -23 85 -27 l41 -5
-32 41 c-63 78 -183 151 -249 152 -19 0 -21 -3 -12 -19z"/>
<path d="M3919 2566 c-64 -26 -134 -79 -175 -133 l-27 -36 41 5 c23 4 61 15
85 27 46 22 151 111 167 142 9 16 7 19 -12 19 -13 0 -48 -11 -79 -24z"/>
<path d="M1893 2379 c-40 -27 -73 -54 -73 -59 0 -6 92 -11 238 -11 130 -1 428
-5 662 -8 l425 -6 3 -28 c2 -17 -4 -37 -14 -48 -16 -18 -40 -19 -666 -19
l-648 0 0 -35 0 -35 680 0 c575 0 680 2 680 14 0 8 -7 17 -16 20 -13 5 -13 9
5 32 13 17 21 41 21 67 0 37 -6 46 -67 104 l-68 63 -545 -1 -545 0 -72 -50z"/>
<path d="M1450 2404 c0 -3 14 -25 30 -49 37 -53 78 -86 169 -134 l69 -36 -107
0 c-101 0 -110 -2 -175 -34 -60 -30 -66 -35 -50 -44 10 -6 60 -11 109 -11 103
1 180 22 215 59 21 23 22 28 11 64 -15 51 -92 121 -176 161 -59 28 -95 37 -95
24z"/>
<path d="M3454 2380 c-101 -49 -184 -134 -184 -188 0 -26 38 -58 90 -78 53
-19 225 -24 254 -8 17 10 11 15 -50 45 -65 32 -74 34 -175 34 l-107 0 69 36
c91 48 132 81 169 134 16 24 30 46 30 49 0 13 -39 4 -96 -24z"/>
<path d="M1035 2381 c-17 -7 -13 -12 31 -34 98 -50 209 -68 274 -46 l32 12
-29 18 c-78 50 -241 76 -308 50z"/>
<path d="M3735 2366 c-34 -12 -71 -29 -84 -38 l-22 -16 32 -11 c64 -22 175 -4
273 46 44 22 48 27 31 34 -43 16 -168 9 -230 -15z"/>
<path d="M1266 2242 c-27 -10 -51 -23 -53 -28 -5 -15 95 -34 171 -34 64 1 157
27 163 46 11 33 -199 45 -281 16z"/>
<path d="M3487 2248 c-21 -6 -36 -15 -34 -22 6 -19 99 -45 163 -46 76 0 176
19 171 34 -12 36 -207 59 -300 34z"/>
<path d="M1667 2069 c-65 -48 -86 -73 -74 -86 21 -20 127 69 140 118 3 10 4
19 4 19 -1 -1 -33 -23 -70 -51z"/>
<path d="M3266 2103 c24 -67 144 -159 144 -110 0 16 -25 39 -98 91 -38 28 -50
33 -46 19z"/>
<path d="M1820 2070 c0 -20 7 -20 680 -20 673 0 680 0 680 20 0 20 -7 20 -680
20 -673 0 -680 0 -680 -20z"/>
</g>
</svg>
